<svg xmlns="http://www.w3.org/2000/svg" xmlns:xlink="http://www.w3.org/1999/xlink" width="2000" zoomAndPan="magnify" viewBox="0 0 1500 1499.999933" height="2000" preserveAspectRatio="xMidYMid meet" version="1.0"><defs><clipPath id="e826f8e7c4"><path d="M 487.089844 451 L 1012 451 L 1012 1049 L 487.089844 1049 Z M 487.089844 451 " clip-rule="nonzero"/></clipPath></defs><g clip-path="url(#e826f8e7c4)"><path fill="#95bf46" d="M 946.65625 567.898438 C 946.246094 564.898438 943.617188 563.238281 941.449219 563.054688 C 939.28125 562.875 893.425781 559.476562 893.425781 559.476562 C 893.425781 559.476562 861.578125 527.855469 858.082031 524.355469 C 854.585938 520.859375 847.753906 521.921875 845.105469 522.703125 C 844.714844 522.816406 838.144531 524.84375 827.28125 528.207031 C 816.644531 497.589844 797.867188 469.457031 764.839844 469.457031 C 763.925781 469.457031 762.988281 469.492188 762.050781 469.546875 C 752.65625 457.121094 741.019531 451.726562 730.96875 451.726562 C 654.027344 451.726562 617.265625 547.921875 605.742188 596.804688 C 575.84375 606.070312 554.605469 612.65625 551.890625 613.507812 C 535.203125 618.746094 534.675781 619.269531 532.484375 634.996094 C 530.835938 646.90625 487.167969 984.632812 487.167969 984.632812 L 827.421875 1048.390625 L 1011.785156 1008.503906 C 1011.785156 1008.503906 947.066406 570.894531 946.660156 567.898438 Z M 808.476562 534.023438 L 779.683594 542.9375 C 779.695312 540.90625 779.707031 538.910156 779.707031 536.726562 C 779.707031 517.699219 777.066406 502.378906 772.828125 490.234375 C 789.847656 492.371094 801.179688 511.738281 808.476562 534.023438 Z M 751.714844 494.007812 C 756.449219 505.863281 759.523438 522.882812 759.523438 545.84375 C 759.523438 547.019531 759.511719 548.09375 759.503906 549.179688 C 740.78125 554.980469 720.433594 561.277344 700.042969 567.59375 C 711.492188 523.402344 732.953125 502.058594 751.714844 494.007812 Z M 728.855469 472.363281 C 732.175781 472.363281 735.523438 473.492188 738.722656 475.695312 C 714.066406 487.300781 687.632812 516.527344 676.472656 574.894531 L 629.46875 589.453125 C 642.542969 544.933594 673.589844 472.363281 728.855469 472.363281 Z M 728.855469 472.363281 " fill-opacity="1" fill-rule="nonzero"/></g><path fill="#5e8e3e" d="M 941.449219 563.054688 C 939.28125 562.875 893.425781 559.476562 893.425781 559.476562 C 893.425781 559.476562 861.578125 527.855469 858.082031 524.355469 C 856.773438 523.054688 855.011719 522.386719 853.167969 522.097656 L 827.441406 1048.386719 L 1011.785156 1008.503906 C 1011.785156 1008.503906 947.066406 570.894531 946.65625 567.898438 C 946.246094 564.898438 943.617188 563.238281 941.449219 563.054688 " fill-opacity="1" fill-rule="nonzero"/><path fill="#ffffff" d="M 764.839844 664.9375 L 742.105469 732.5625 C 742.105469 732.5625 722.1875 721.933594 697.773438 721.933594 C 661.984375 721.933594 660.183594 744.398438 660.183594 750.058594 C 660.183594 780.945312 740.6875 792.78125 740.6875 865.128906 C 740.6875 922.046875 704.589844 958.699219 655.917969 958.699219 C 597.507812 958.699219 567.640625 922.347656 567.640625 922.347656 L 583.277344 870.667969 C 583.277344 870.667969 613.980469 897.03125 639.890625 897.03125 C 656.816406 897.03125 663.703125 883.699219 663.703125 873.960938 C 663.703125 833.671875 597.65625 831.875 597.65625 765.667969 C 597.65625 709.949219 637.644531 656.027344 718.371094 656.027344 C 749.472656 656.027344 764.839844 664.9375 764.839844 664.9375 " fill-opacity="1" fill-rule="nonzero"/></svg>