<svg xmlns="http://www.w3.org/2000/svg" xmlns:xlink="http://www.w3.org/1999/xlink" width="2000" zoomAndPan="magnify" viewBox="0 0 1500 1499.999933" height="2000" preserveAspectRatio="xMidYMid meet" version="1.0"><defs><clipPath id="7d02b96589"><path d="M 318.007812 318 L 1182 318 L 1182 1182 L 318.007812 1182 Z M 318.007812 318 " clip-rule="nonzero"/></clipPath></defs><g clip-path="url(#7d02b96589)"><path fill="#000000" d="M 721.71875 318.261719 C 719.859375 318.429688 713.949219 319.019531 708.628906 319.441406 C 585.921875 330.503906 470.988281 396.707031 398.191406 498.457031 C 357.65625 555.03125 331.730469 619.203125 321.933594 687.179688 C 318.472656 710.90625 318.050781 717.914062 318.050781 750.085938 C 318.050781 782.257812 318.472656 789.265625 321.933594 812.996094 C 345.410156 975.203125 460.855469 1111.488281 617.421875 1161.984375 C 645.460938 1171.019531 675.015625 1177.183594 708.628906 1180.898438 C 721.71875 1182.335938 778.296875 1182.335938 791.386719 1180.898438 C 849.402344 1174.480469 898.554688 1160.128906 947.027344 1135.386719 C 954.457031 1131.585938 955.894531 1130.574219 954.882812 1129.730469 C 954.207031 1129.222656 922.539062 1086.75 884.535156 1035.410156 L 815.457031 942.101562 L 728.894531 814.007812 C 681.265625 743.585938 642.082031 685.996094 641.742188 685.996094 C 641.40625 685.914062 641.066406 742.824219 640.898438 812.320312 C 640.644531 933.996094 640.5625 938.894531 639.042969 941.765625 C 636.84375 945.902344 635.15625 947.59375 631.609375 949.449219 C 628.90625 950.800781 626.542969 951.054688 613.792969 951.054688 L 599.179688 951.054688 L 595.296875 948.605469 C 592.761719 947 590.90625 944.890625 589.636719 942.441406 L 587.863281 938.640625 L 588.035156 769.339844 L 588.289062 599.953125 L 590.90625 596.660156 C 592.257812 594.886719 595.128906 592.605469 597.15625 591.507812 C 600.617188 589.820312 601.96875 589.652344 616.578125 589.652344 C 633.804688 589.652344 636.675781 590.328125 641.152344 595.222656 C 642.417969 596.574219 689.289062 667.167969 745.363281 752.199219 C 801.4375 837.230469 878.117188 953.332031 915.78125 1010.332031 L 984.183594 1113.9375 L 987.648438 1111.660156 C 1018.300781 1091.730469 1050.730469 1063.359375 1076.402344 1033.804688 C 1131.042969 971.066406 1166.257812 894.5625 1178.082031 812.996094 C 1181.542969 789.265625 1181.964844 782.257812 1181.964844 750.085938 C 1181.964844 717.914062 1181.542969 710.90625 1178.082031 687.179688 C 1154.601562 524.96875 1039.160156 388.683594 882.59375 338.1875 C 854.976562 329.238281 825.589844 323.074219 792.65625 319.359375 C 784.546875 318.515625 728.726562 317.585938 721.71875 318.261719 Z M 898.554688 579.519531 C 902.605469 581.542969 905.902344 585.429688 907.082031 589.480469 C 907.757812 591.675781 907.925781 638.625 907.757812 744.429688 L 907.503906 896.253906 L 880.734375 855.214844 L 853.878906 814.175781 L 853.878906 703.8125 C 853.878906 632.460938 854.21875 592.351562 854.722656 590.410156 C 856.074219 585.683594 859.03125 581.96875 863.085938 579.769531 C 866.546875 578 867.8125 577.828125 881.074219 577.828125 C 893.570312 577.828125 895.765625 578 898.554688 579.519531 Z M 898.554688 579.519531 " fill-opacity="1" fill-rule="nonzero"/></g><path fill="#000000" d="M 979.960938 1115.796875 C 977.007812 1117.652344 976.078125 1118.921875 978.695312 1117.484375 C 980.554688 1116.386719 983.59375 1114.109375 983.085938 1114.023438 C 982.832031 1114.023438 981.398438 1114.867188 979.960938 1115.796875 Z M 974.136719 1119.597656 C 972.617188 1120.777344 972.617188 1120.863281 974.472656 1119.933594 C 975.488281 1119.425781 976.332031 1118.835938 976.332031 1118.667969 C 976.332031 1117.992188 975.910156 1118.160156 974.136719 1119.597656 Z M 969.914062 1122.128906 C 968.394531 1123.3125 968.394531 1123.394531 970.25 1122.46875 C 971.265625 1121.960938 972.109375 1121.371094 972.109375 1121.199219 C 972.109375 1120.523438 971.6875 1120.695312 969.914062 1122.128906 Z M 965.691406 1124.664062 C 964.171875 1125.84375 964.171875 1125.929688 966.027344 1125 C 967.042969 1124.492188 967.886719 1123.902344 967.886719 1123.734375 C 967.886719 1123.058594 967.464844 1123.226562 965.691406 1124.664062 Z M 959.273438 1128.039062 C 956.0625 1129.730469 956.234375 1130.40625 959.441406 1128.800781 C 960.878906 1128.039062 961.976562 1127.28125 961.976562 1127.113281 C 961.976562 1126.519531 961.890625 1126.605469 959.273438 1128.039062 Z M 959.273438 1128.039062 " fill-opacity="1" fill-rule="nonzero"/></svg>