<svg xmlns="http://www.w3.org/2000/svg" xmlns:xlink="http://www.w3.org/1999/xlink" width="2000" zoomAndPan="magnify" viewBox="0 0 1500 1499.999933" height="2000" preserveAspectRatio="xMidYMid meet" version="1.0"><path fill="#ff2d20" d="M 1082.855469 562.0625 C 1083.101562 562.980469 1083.226562 563.917969 1083.230469 564.867188 L 1083.230469 712.222656 C 1083.230469 713.167969 1083.109375 714.097656 1082.863281 715.011719 C 1082.617188 715.925781 1082.257812 716.789062 1081.785156 717.609375 C 1081.308594 718.425781 1080.738281 719.167969 1080.066406 719.835938 C 1079.398438 720.503906 1078.652344 721.074219 1077.832031 721.542969 L 954.1875 792.75 L 954.1875 933.886719 C 954.1875 937.726562 952.148438 941.273438 948.816406 943.207031 L 690.71875 1091.824219 C 690.128906 1092.160156 689.484375 1092.375 688.839844 1092.601562 C 688.597656 1092.683594 688.371094 1092.832031 688.117188 1092.898438 C 686.28125 1093.382812 684.445312 1093.382812 682.609375 1092.898438 C 682.316406 1092.816406 682.046875 1092.65625 681.765625 1092.546875 C 681.175781 1092.332031 680.558594 1092.144531 679.992188 1091.824219 L 421.949219 943.207031 C 421.128906 942.734375 420.382812 942.167969 419.714844 941.5 C 419.046875 940.832031 418.472656 940.089844 418 939.269531 C 417.527344 938.453125 417.167969 937.585938 416.921875 936.675781 C 416.675781 935.761719 416.550781 934.832031 416.550781 933.886719 L 416.550781 491.820312 C 416.550781 490.855469 416.6875 489.914062 416.925781 489 C 417.007812 488.691406 417.195312 488.410156 417.304688 488.101562 C 417.503906 487.539062 417.691406 486.960938 417.988281 486.4375 C 418.191406 486.085938 418.484375 485.804688 418.726562 485.484375 C 419.035156 485.054688 419.316406 484.609375 419.679688 484.234375 C 419.988281 483.925781 420.390625 483.695312 420.742188 483.429688 C 421.128906 483.105469 421.480469 482.757812 421.921875 482.5 L 421.9375 482.5 L 550.964844 408.191406 C 551.78125 407.722656 552.644531 407.367188 553.554688 407.121094 C 554.464844 406.878906 555.390625 406.757812 556.335938 406.757812 C 557.277344 406.757812 558.203125 406.878906 559.113281 407.121094 C 560.023438 407.367188 560.886719 407.722656 561.707031 408.191406 L 690.734375 482.5 L 690.761719 482.5 C 691.191406 482.769531 691.554688 483.105469 691.941406 483.414062 C 692.292969 483.683594 692.679688 483.925781 692.988281 484.222656 C 693.367188 484.609375 693.632812 485.054688 693.957031 485.484375 C 694.183594 485.804688 694.492188 486.085938 694.679688 486.4375 C 694.988281 486.972656 695.164062 487.539062 695.378906 488.101562 C 695.488281 488.410156 695.675781 488.691406 695.753906 489.015625 C 696.003906 489.933594 696.128906 490.871094 696.132812 491.820312 L 696.132812 767.929688 L 803.652344 706.003906 L 803.652344 564.855469 C 803.652344 563.914062 803.785156 562.960938 804.027344 562.0625 C 804.121094 561.738281 804.296875 561.457031 804.402344 561.148438 C 804.617188 560.585938 804.804688 560.007812 805.101562 559.484375 C 805.300781 559.132812 805.597656 558.851562 805.824219 558.53125 C 806.148438 558.097656 806.417969 557.65625 806.792969 557.28125 C 807.101562 556.972656 807.492188 556.742188 807.839844 556.472656 C 808.242188 556.152344 808.589844 555.804688 809.019531 555.546875 L 809.035156 555.546875 L 938.078125 481.238281 C 938.894531 480.769531 939.757812 480.410156 940.667969 480.167969 C 941.578125 479.921875 942.503906 479.800781 943.449219 479.800781 C 944.390625 479.800781 945.316406 479.921875 946.226562 480.167969 C 947.136719 480.410156 948 480.769531 948.816406 481.238281 L 1077.847656 555.546875 C 1078.304688 555.816406 1078.652344 556.152344 1079.054688 556.460938 C 1079.390625 556.730469 1079.78125 556.972656 1080.089844 557.265625 C 1080.464844 557.65625 1080.734375 558.097656 1081.054688 558.53125 C 1081.296875 558.851562 1081.59375 559.132812 1081.78125 559.484375 C 1082.089844 560.007812 1082.265625 560.585938 1082.480469 561.148438 C 1082.597656 561.457031 1082.773438 561.738281 1082.855469 562.0625 Z M 1061.722656 706.003906 L 1061.722656 583.46875 L 1016.566406 609.46875 L 954.1875 645.394531 L 954.1875 767.929688 L 1061.734375 706.003906 Z M 932.691406 927.667969 L 932.691406 805.050781 L 871.332031 840.105469 L 696.117188 940.132812 L 696.117188 1063.902344 Z M 438.0625 510.421875 L 438.0625 927.667969 L 674.609375 1063.890625 L 674.609375 940.144531 L 551.03125 870.1875 L 550.992188 870.160156 L 550.9375 870.132812 C 550.519531 869.890625 550.171875 869.542969 549.78125 869.246094 C 549.445312 868.980469 549.058594 868.765625 548.761719 868.46875 L 548.734375 868.429688 C 548.386719 868.09375 548.144531 867.675781 547.847656 867.300781 C 547.582031 866.9375 547.257812 866.628906 547.042969 866.253906 L 547.03125 866.210938 C 546.789062 865.808594 546.640625 865.324219 546.464844 864.867188 C 546.292969 864.464844 546.0625 864.089844 545.957031 863.660156 L 545.957031 863.648438 C 545.820312 863.136719 545.796875 862.597656 545.742188 862.074219 C 545.6875 861.671875 545.582031 861.269531 545.582031 860.867188 L 545.582031 572.347656 L 483.214844 536.410156 L 438.0625 510.4375 Z M 556.347656 429.921875 L 448.84375 491.820312 L 556.320312 553.722656 L 663.8125 491.808594 L 556.320312 429.921875 Z M 612.257812 816.226562 L 674.621094 780.3125 L 674.621094 510.421875 L 629.46875 536.421875 L 567.089844 572.347656 L 567.089844 842.238281 Z M 943.449219 502.96875 L 835.953125 564.867188 L 943.449219 626.765625 L 1050.925781 564.855469 Z M 932.691406 645.394531 L 870.3125 609.46875 L 825.160156 583.46875 L 825.160156 706.003906 L 887.527344 741.917969 L 932.691406 767.929688 Z M 685.351562 921.53125 L 843.015625 831.496094 L 921.832031 786.503906 L 814.417969 724.644531 L 690.746094 795.867188 L 578.03125 860.773438 Z M 685.351562 921.53125 " fill-opacity="1" fill-rule="evenodd"/></svg>